<?xml version="1.0" standalone="no"?>
<!DOCTYPE svg PUBLIC "-//W3C//DTD SVG 20010904//EN"
 "http://www.w3.org/TR/2001/REC-SVG-20010904/DTD/svg10.dtd">
<svg version="1.0" xmlns="http://www.w3.org/2000/svg"
 width="1280.000000pt" height="1038.000000pt" viewBox="0 0 1280.000000 1038.000000"
 preserveAspectRatio="xMidYMid meet">
<metadata>
Created by potrace 1.15, written by Peter Selinger 2001-2017
</metadata>
<g transform="translate(0.000000,1038.000000) scale(0.100000,-0.100000)"
fill="#000000" stroke="none">
<path d="M11525 10369 c-4 -6 -5 -13 -2 -16 7 -7 27 6 27 18 0 12 -17 12 -25
-2z"/>
<path d="M11240 10345 c0 -8 5 -15 10 -15 6 0 10 7 10 15 0 8 -4 15 -10 15 -5
0 -10 -7 -10 -15z"/>
<path d="M12580 10325 c0 -17 2 -18 24 -9 23 9 20 24 -4 24 -11 0 -20 -7 -20
-15z"/>
<path d="M12072 10247 c-7 -8 -8 -18 -1 -27 8 -13 11 -12 24 4 22 29 0 51 -23
23z"/>
<path d="M10750 9862 c-79 -50 -107 -114 -71 -162 19 -26 21 -42 21 -153 0
-209 -43 -330 -156 -443 -107 -107 -218 -177 -411 -261 -40 -18 -73 -36 -73
-42 0 -19 126 29 184 71 21 15 44 28 49 28 10 0 81 43 179 108 63 41 154 142
197 216 34 60 44 90 61 191 11 66 20 141 20 167 0 66 14 95 52 111 39 16 95
77 104 111 3 14 0 37 -8 53 -11 24 -20 28 -58 31 -36 2 -55 -3 -90 -26z"/>
<path d="M12552 9844 c-29 -7 -74 -22 -100 -33 -76 -31 -180 -71 -186 -71 -4
0 -208 -84 -351 -145 -22 -10 -132 -63 -245 -119 -270 -135 -579 -320 -845
-507 -27 -20 -115 -80 -195 -134 -80 -54 -212 -149 -295 -210 -82 -61 -240
-172 -350 -246 -267 -180 -353 -245 -505 -379 -47 -42 -119 -104 -160 -139
-41 -35 -163 -146 -270 -246 -227 -212 -270 -249 -485 -415 -318 -246 -396
-301 -416 -295 -14 5 -21 0 -28 -18 -10 -26 -66 -69 -181 -138 -115 -69 -133
-75 -191 -60 -164 42 -276 -17 -300 -159 -20 -118 56 -210 172 -210 66 0 121
26 178 84 41 42 43 47 47 113 l3 68 63 60 c67 64 464 364 733 554 88 62 174
123 190 135 17 11 71 47 120 80 98 65 304 211 485 345 63 46 149 109 190 140
129 95 262 202 330 265 186 174 807 651 1082 831 274 179 367 233 703 405 302
155 587 259 776 285 63 8 132 20 154 25 22 5 59 7 83 4 l42 -6 0 70 0 69 -37
7 c-62 10 -154 6 -211 -10z"/>
<path d="M7895 9011 c-206 -63 -348 -189 -430 -381 -10 -25 -27 -57 -37 -72
-10 -14 -18 -39 -18 -55 0 -15 -4 -44 -10 -62 -5 -19 -8 -36 -6 -38 5 -5 51
94 66 142 60 193 209 347 400 414 82 29 251 39 354 21 230 -40 416 -212 462
-429 32 -151 8 -270 -70 -351 -24 -25 -57 -63 -72 -85 -52 -73 -249 -247 -327
-288 -40 -22 -85 -49 -102 -61 -48 -37 -130 -75 -195 -92 -33 -8 -81 -24 -106
-36 -33 -14 -81 -22 -164 -28 -139 -8 -193 -29 -243 -93 -18 -23 -57 -66 -87
-97 -61 -61 -91 -75 -420 -199 -192 -72 -544 -215 -665 -271 -38 -17 -101 -44
-140 -60 -38 -15 -200 -91 -360 -168 -307 -149 -486 -229 -466 -209 13 13 110
75 201 128 30 18 169 107 307 198 139 91 325 213 414 271 89 58 201 133 248
168 47 35 111 77 141 94 30 17 89 63 130 102 41 40 107 99 145 131 39 33 126
114 193 180 183 177 282 318 282 399 0 47 9 66 30 66 39 0 63 55 44 104 -5 13
-10 13 -41 -2 -35 -17 -36 -16 -52 6 -31 45 -74 93 -78 88 -3 -2 10 -37 28
-78 43 -95 44 -159 6 -242 -33 -71 -106 -163 -184 -232 -146 -128 -325 -272
-423 -340 -59 -40 -115 -85 -124 -98 -27 -43 -406 -317 -912 -662 -160 -109
-396 -251 -459 -276 -27 -11 -61 -30 -75 -43 -14 -12 -52 -41 -84 -64 -67 -46
-116 -53 -195 -25 -52 18 -93 11 -137 -22 -40 -30 -74 -99 -74 -150 l0 -40
-102 -43 c-57 -24 -131 -57 -164 -72 -34 -15 -115 -48 -180 -74 -66 -25 -135
-53 -154 -62 -19 -9 -69 -30 -110 -48 -41 -17 -105 -52 -142 -77 -68 -46 -209
-118 -718 -366 -157 -76 -352 -174 -435 -218 -82 -44 -226 -115 -320 -159 -93
-43 -192 -93 -220 -110 -95 -59 -390 -220 -451 -246 -33 -14 -84 -45 -114 -68
-29 -23 -90 -64 -135 -90 -44 -27 -119 -73 -165 -103 -47 -30 -141 -89 -210
-130 -69 -41 -174 -106 -235 -143 -60 -38 -144 -84 -185 -104 l-75 -36 -147 3
c-161 3 -187 -3 -246 -53 -66 -55 -98 -169 -72 -251 39 -122 197 -181 325
-120 67 32 97 67 131 156 57 149 204 266 784 627 149 93 245 147 292 165 27
10 71 36 98 57 55 43 333 205 425 247 33 15 138 72 235 127 334 189 1387 704
1514 741 31 9 70 25 88 36 61 35 261 139 485 252 l222 111 59 -17 c75 -21 87
-20 138 5 33 15 49 32 68 71 21 43 40 61 109 107 46 31 133 78 193 106 60 27
231 111 379 186 149 76 320 160 380 188 190 87 717 312 830 354 293 109 456
162 530 171 32 4 69 1 105 -9 61 -16 166 -20 202 -6 13 5 55 35 93 66 39 31
110 77 159 102 49 25 105 55 125 67 81 51 178 104 201 111 14 4 67 38 117 76
51 38 97 69 103 69 20 0 173 144 231 218 41 52 64 92 75 131 8 31 27 93 41
139 23 74 25 92 19 180 -7 96 -7 98 16 109 13 6 30 13 38 16 8 2 -5 7 -30 11
l-45 7 -42 89 c-29 61 -61 109 -103 154 -73 78 -127 113 -245 163 -89 37 -91
37 -245 40 -127 2 -166 -1 -215 -16z"/>
<path d="M9795 8731 c-22 -4 -51 -14 -65 -22 l-25 -14 39 -3 c39 -3 116 23
116 40 0 9 -6 9 -65 -1z"/>
<path d="M10823 8660 c-48 -10 -132 -56 -140 -76 -12 -31 4 -35 34 -10 80 68
199 76 358 27 134 -42 203 -66 310 -108 187 -74 462 -150 620 -172 117 -17
347 -15 433 3 82 18 170 51 227 88 66 42 135 108 135 130 0 16 -10 11 -57 -29
-79 -67 -127 -96 -200 -121 -86 -30 -316 -56 -422 -48 -192 14 -494 85 -711
167 -263 99 -286 107 -370 127 -110 27 -165 33 -217 22z"/>
<path d="M9370 8650 c0 -5 5 -10 10 -10 6 0 10 5 10 10 0 6 -4 10 -10 10 -5 0
-10 -4 -10 -10z"/>
<path d="M7123 8633 c-31 -12 0 -59 31 -47 10 4 16 15 14 28 -3 21 -22 29 -45
19z"/>
<path d="M9095 8616 c-18 -13 -18 -14 1 -24 25 -13 49 0 41 22 -8 20 -18 20
-42 2z"/>
<path d="M8895 8589 c-10 -15 3 -25 16 -12 7 7 7 13 1 17 -6 3 -14 1 -17 -5z"/>
<path d="M7150 8544 c0 -20 38 -84 50 -84 21 0 19 22 -5 60 -26 42 -45 52 -45
24z"/>
<path d="M8443 8524 c-3 -8 0 -21 6 -27 10 -9 16 -8 26 7 8 10 12 23 9 27 -9
15 -34 10 -41 -7z"/>
<path d="M10623 8484 c-10 -14 -41 -54 -70 -89 -29 -35 -55 -76 -59 -92 l-7
-28 32 29 c17 16 49 59 71 95 23 36 48 76 57 89 9 12 11 22 5 22 -6 0 -19 -12
-29 -26z"/>
<path d="M7420 8360 c0 -15 5 -20 18 -18 9 2 17 10 17 18 0 8 -8 16 -17 18
-13 2 -18 -3 -18 -18z"/>
<path d="M10313 8264 c-15 -38 49 -72 76 -41 9 12 7 19 -15 36 -32 25 -52 27
-61 5z"/>
<path d="M7452 8171 c2 -7 7 -12 11 -12 12 1 9 15 -3 20 -7 2 -11 -2 -8 -8z"/>
<path d="M7432 7987 c-7 -8 -7 -18 -2 -27 8 -13 11 -13 25 1 14 13 14 17 2 27
-11 10 -17 9 -25 -1z"/>
<path d="M7240 7949 c-25 -46 28 -93 60 -54 11 13 10 20 -7 42 -26 36 -39 39
-53 12z"/>
<path d="M5600 7870 c0 -5 5 -10 10 -10 6 0 10 5 10 10 0 6 -4 10 -10 10 -5 0
-10 -4 -10 -10z"/>
<path d="M8683 7733 c-5 -11 5 -27 32 -50 21 -18 44 -33 52 -33 26 0 25 30 -1
65 -30 38 -72 48 -83 18z"/>
<path d="M7395 7680 c-8 -13 4 -32 16 -25 12 8 12 35 0 35 -6 0 -13 -4 -16
-10z"/>
<path d="M7071 7421 c-8 -14 -7 -22 5 -32 14 -11 18 -10 30 6 10 13 11 22 3
32 -16 18 -26 16 -38 -6z"/>
<path d="M2592 7183 c2 -10 10 -18 18 -18 8 0 16 8 18 18 2 12 -3 17 -18 17
-15 0 -20 -5 -18 -17z"/>
<path d="M2430 7156 c0 -9 7 -16 16 -16 17 0 14 22 -4 28 -7 2 -12 -3 -12 -12z"/>
<path d="M7575 7150 c4 -6 11 -8 16 -5 14 9 11 15 -7 15 -8 0 -12 -5 -9 -10z"/>
<path d="M9380 7100 c0 -5 5 -10 11 -10 5 0 7 5 4 10 -3 6 -8 10 -11 10 -2 0
-4 -4 -4 -10z"/>
<path d="M9530 7095 c0 -12 15 -15 73 -14 79 0 69 12 -20 22 -43 5 -53 3 -53
-8z"/>
<path d="M9037 7086 c-45 -17 -102 -58 -124 -92 -9 -14 -31 -71 -50 -126 -26
-79 -51 -128 -120 -234 l-88 -133 -68 0 c-107 -1 -178 -48 -193 -126 -9 -49 1
-78 38 -115 l31 -32 -17 -33 c-24 -43 -131 -173 -209 -252 -59 -61 -63 -63
-112 -63 -68 1 -197 25 -236 44 -40 20 -79 21 -79 2 0 -17 21 -26 68 -27 60
-1 245 -43 249 -56 2 -6 -7 -19 -20 -28 -51 -33 -480 -40 -1244 -20 -264 7
-293 7 -293 -8 0 -13 15 -16 81 -19 44 -2 88 0 98 4 10 3 118 2 242 -3 123 -5
403 -11 621 -12 257 -1 398 -6 398 -12 0 -5 -27 -27 -60 -48 -193 -123 -420
-211 -640 -248 -115 -19 -376 -17 -500 4 -118 20 -465 102 -523 123 -20 8 -48
14 -61 14 -14 0 -30 10 -40 25 -25 37 -38 31 -34 -17 l3 -43 80 -3 c44 -1 105
-9 135 -18 405 -117 634 -149 867 -119 336 42 558 126 818 309 l55 39 98 -12
c53 -6 115 -14 136 -17 50 -8 100 16 116 57 7 16 16 30 21 30 28 4 39 4 87 -2
38 -5 62 -16 86 -37 43 -38 97 -56 141 -48 19 4 57 26 87 52 29 24 70 49 93
55 62 17 269 87 321 109 57 25 56 25 38 -7 -20 -40 -17 -67 11 -101 30 -36 33
-94 9 -146 -19 -39 -67 -66 -182 -102 -94 -29 -99 -29 -120 -5 -17 20 -30 24
-69 22 -27 -1 -82 -47 -93 -76 -6 -15 -20 -25 -44 -29 -19 -4 -36 -11 -38 -17
-3 -10 -314 -108 -426 -134 -114 -27 -170 -13 -196 50 -11 27 -22 35 -50 40
-19 4 -41 5 -48 2 -7 -2 -22 0 -32 6 -14 7 -22 6 -30 -4 -6 -8 -29 -26 -52
-42 -81 -55 -108 -158 -61 -228 35 -52 82 -79 139 -79 64 0 103 18 164 76 28
27 67 59 87 71 l37 22 83 -39 c87 -40 208 -84 264 -95 48 -10 50 -22 9 -64
-33 -34 -182 -131 -202 -131 -4 0 -39 -15 -78 -34 -39 -19 -127 -60 -196 -91
-122 -55 -127 -58 -223 -157 l-97 -100 -63 6 c-184 19 -180 19 -216 -6 -55
-37 -73 -69 -73 -127 0 -67 19 -95 80 -115 57 -19 95 -10 154 35 20 16 43 29
51 29 20 0 33 19 42 57 5 25 19 40 69 72 112 70 584 304 786 389 503 212 991
374 1224 407 l50 7 -84 -64 c-46 -34 -167 -120 -269 -191 -485 -332 -691 -458
-735 -450 -21 4 -26 2 -26 -14 0 -16 -28 -34 -126 -82 -145 -71 -207 -93 -324
-116 -113 -23 -159 -50 -291 -169 -62 -55 -173 -147 -248 -203 -134 -101 -136
-102 -152 -81 -9 11 -21 18 -28 14 -14 -9 -15 -46 -1 -46 6 0 10 -4 10 -9 0
-8 -153 -132 -291 -236 -29 -22 -80 -65 -114 -96 -33 -30 -112 -100 -175 -154
-63 -54 -221 -192 -350 -305 -256 -226 -284 -249 -472 -393 -114 -87 -410
-286 -585 -393 -118 -72 -406 -224 -446 -235 -21 -5 -64 -27 -95 -47 -31 -20
-146 -78 -255 -129 -109 -52 -215 -104 -235 -117 -43 -26 -216 -106 -282 -129
-25 -9 -89 -21 -143 -27 -108 -11 -129 -6 -196 52 -31 27 -37 29 -85 23 -162
-22 -259 -108 -273 -240 -7 -68 10 -118 59 -171 89 -97 269 -112 350 -30 16
17 44 53 62 80 24 38 48 59 102 90 40 23 121 74 180 114 60 40 165 100 234
133 69 33 150 74 180 90 82 44 301 149 311 149 18 0 448 227 564 297 28 17
120 73 205 124 294 177 381 241 1130 834 102 81 223 174 270 208 47 33 123 93
170 132 320 266 560 404 702 405 25 0 75 9 110 20 83 26 88 26 88 -10 0 -36
36 -75 78 -83 15 -3 52 -1 82 5 48 10 68 8 166 -16 205 -49 297 -90 364 -162
89 -97 70 -229 -51 -346 -67 -65 -73 -81 -29 -68 19 5 30 5 30 -1 0 -9 -173
-197 -214 -234 -6 -5 -64 -69 -129 -142 -64 -72 -151 -159 -192 -194 -87 -72
-168 -163 -220 -249 -40 -66 -51 -70 -108 -40 -42 23 -73 26 -80 8 -29 -77
-61 -245 -62 -318 0 -76 3 -90 28 -133 67 -114 209 -115 322 -3 72 72 106 132
99 175 -5 31 0 43 35 87 22 28 65 70 94 92 30 22 57 51 60 64 42 177 76 233
286 468 110 123 131 142 131 121 0 -6 5 -11 10 -11 13 0 13 27 -1 32 -17 6
181 218 333 357 142 128 487 417 557 465 20 14 86 39 146 56 171 49 363 146
505 255 73 57 111 75 157 75 75 1 158 57 189 127 8 18 14 55 14 82 0 56 15 73
115 133 147 88 117 253 -39 218 -26 -6 -95 -34 -154 -64 -144 -72 -531 -296
-673 -388 -268 -175 -586 -437 -884 -729 -226 -221 -299 -289 -309 -289 -13 0
-4 19 35 71 51 68 89 151 89 197 0 141 -138 265 -376 338 -46 14 -89 33 -96
43 -7 10 -23 21 -35 25 -14 4 -30 25 -42 51 -11 24 -28 46 -40 50 -30 9 -27
21 25 79 141 157 392 314 919 575 281 140 467 243 538 299 20 17 50 33 66 37
28 6 81 49 81 65 0 15 125 110 144 110 16 0 18 -5 13 -42 -7 -49 -31 -119 -76
-227 -17 -40 -31 -78 -31 -85 0 -20 49 68 64 114 7 25 30 84 49 130 20 47 39
102 42 122 5 30 11 38 35 43 39 9 80 42 80 65 0 19 109 101 324 245 129 86
220 174 256 249 24 49 32 84 41 176 7 64 9 127 6 140 -4 14 -29 53 -56 86
l-50 61 -103 6 c-142 7 -169 18 -262 107 -101 97 -134 145 -147 217 -6 32 -24
79 -40 104 -18 29 -34 71 -40 110 -12 75 -18 87 -65 129 -31 26 -42 31 -68 25
-65 -13 -294 -17 -346 -6 -77 17 -73 6 8 -18 46 -14 97 -21 154 -21 102 0 185
-14 209 -36 19 -17 54 -138 65 -222 4 -30 17 -67 30 -85 12 -18 44 -67 71
-110 26 -43 72 -111 102 -150 56 -76 131 -218 131 -249 0 -28 29 -80 59 -105
14 -12 50 -27 78 -33 29 -6 55 -16 59 -21 9 -15 -39 -82 -88 -122 -66 -54
-413 -247 -444 -247 -5 0 -21 23 -36 50 -40 72 -59 68 -102 -22 -23 -49 -58
-97 -105 -146 l-69 -74 -69 -8 c-302 -38 -850 -220 -1473 -487 -63 -28 -140
-58 -170 -68 -30 -10 -67 -26 -81 -36 -43 -30 -376 -192 -387 -188 -12 5 82
86 153 133 47 31 155 82 255 120 94 36 294 143 353 188 34 26 68 48 75 48 6 0
29 -9 49 -20 59 -31 118 -16 185 48 71 67 75 146 11 202 -30 27 -42 31 -70 27
-18 -3 -33 -1 -33 4 0 5 26 37 57 72 54 58 62 63 128 78 63 15 145 52 185 84
21 17 306 113 357 120 60 9 108 43 233 165 56 55 70 85 70 147 0 46 -29 83
-83 109 -107 49 -197 30 -523 -117 -47 -21 -72 -30 -250 -93 -72 -25 -151 -49
-175 -52 -41 -6 -47 -4 -63 20 -24 38 -75 66 -118 66 -29 0 -49 -10 -92 -45
-55 -45 -56 -45 -132 -45 -67 0 -80 3 -106 25 -37 31 -98 33 -153 5 -46 -24
-45 -23 -45 -8 0 6 30 44 68 83 37 39 103 111 147 160 59 66 92 94 131 111 29
13 69 37 89 55 52 46 116 74 300 131 176 54 326 117 401 169 27 18 75 59 107
92 55 55 63 60 116 66 70 8 117 39 142 95 52 114 -10 187 -148 178 -34 -3 -94
-62 -118 -117 -21 -46 -27 -51 -70 -63 -26 -7 -66 -21 -89 -31 -22 -10 -68
-24 -101 -31 -33 -7 -71 -18 -85 -25 -14 -7 -56 -20 -95 -30 -38 -10 -81 -24
-95 -30 -14 -7 -34 -9 -44 -6 -17 7 -17 9 8 28 15 12 69 36 120 53 97 32 129
55 161 119 13 27 15 39 6 58 -6 13 -11 37 -11 53 0 30 -50 90 -75 90 -7 0 -19
2 -27 5 -7 2 -30 -2 -51 -9z m461 -288 c18 -18 15 -33 -14 -67 -80 -95 -355
-219 -554 -251 -80 -12 -200 -13 -200 -1 0 5 27 46 60 92 49 69 65 84 87 85
16 1 42 6 58 12 57 21 180 52 202 52 12 0 52 11 90 24 58 21 126 39 218 59 35
8 41 7 53 -5z m372 -703 c80 -42 80 -125 -2 -201 -33 -31 -57 -42 -135 -63
-23 -6 -55 -22 -70 -35 -36 -30 -74 -49 -168 -85 -71 -28 -76 -28 -85 -11 -5
10 -7 39 -3 65 4 35 12 50 32 63 56 34 71 54 71 94 0 43 -27 78 -62 78 -42 0
14 27 177 84 83 30 199 35 245 11z m-997 -707 c-1 -48 -35 -135 -73 -189 -31
-42 -80 -39 -238 14 -219 75 -220 64 23 141 116 37 221 71 235 76 46 16 55 9
53 -42z m1837 -1127 c0 -25 -145 -157 -227 -207 -54 -33 -158 -84 -171 -84 -6
0 -32 -9 -58 -20 -26 -11 -49 -19 -51 -16 -6 5 227 182 304 232 135 85 203
117 203 95z"/>
<path d="M9764 7065 c11 -8 31 -15 45 -15 25 1 25 1 7 15 -11 8 -31 15 -45 15
-25 -1 -25 -1 -7 -15z"/>
<path d="M9239 7019 c-7 -14 -8 -24 -1 -31 15 -15 32 0 32 28 0 30 -15 31 -31
3z"/>
<path d="M8496 6993 c-11 -11 -6 -23 9 -23 8 0 15 4 15 9 0 13 -16 22 -24 14z"/>
<path d="M7886 6948 c-25 -14 -21 -48 7 -48 29 0 62 23 54 37 -10 16 -42 22
-61 11z"/>
<path d="M8190 6745 c0 -8 7 -15 15 -15 8 0 15 7 15 15 0 8 -7 15 -15 15 -8 0
-15 -7 -15 -15z"/>
<path d="M8290 6720 c0 -15 5 -20 18 -18 9 2 17 10 17 18 0 8 -8 16 -17 18
-13 2 -18 -3 -18 -18z"/>
<path d="M6669 6644 c-9 -11 -9 -18 -1 -26 14 -14 42 -3 42 16 0 20 -27 27
-41 10z"/>
<path d="M8660 6635 c-15 -18 -5 -35 21 -35 24 0 37 29 18 41 -19 12 -25 11
-39 -6z"/>
<path d="M5995 6631 c-6 -11 9 -23 19 -14 9 9 7 23 -3 23 -6 0 -12 -4 -16 -9z"/>
<path d="M8120 6630 c0 -5 7 -10 15 -10 8 0 15 5 15 10 0 6 -7 10 -15 10 -8 0
-15 -4 -15 -10z"/>
<path d="M8563 6608 c2 -7 10 -13 17 -13 7 0 15 6 18 13 2 7 -5 12 -18 12 -13
0 -20 -5 -17 -12z"/>
<path d="M8620 6609 c0 -5 5 -7 10 -4 6 3 10 8 10 11 0 2 -4 4 -10 4 -5 0 -10
-5 -10 -11z"/>
<path d="M5842 6593 c-7 -12 -7 -25 -1 -36 14 -25 51 -4 47 26 -4 28 -34 34
-46 10z"/>
<path d="M8310 6585 c0 -8 7 -15 15 -15 8 0 15 7 15 15 0 8 -7 15 -15 15 -8 0
-15 -7 -15 -15z"/>
<path d="M6700 6555 c-16 -20 14 -70 37 -61 8 3 17 6 19 6 9 0 3 47 -8 58 -16
16 -33 15 -48 -3z"/>
<path d="M6065 6430 c3 -5 8 -10 11 -10 2 0 4 5 4 10 0 6 -5 10 -11 10 -5 0
-7 -4 -4 -10z"/>
<path d="M8240 6330 c0 -5 5 -10 10 -10 6 0 10 5 10 10 0 6 -4 10 -10 10 -5 0
-10 -4 -10 -10z"/>
<path d="M7484 6025 c-10 -25 4 -45 30 -45 24 0 37 22 29 48 -6 17 -52 15 -59
-3z"/>
<path d="M5190 5991 c0 -15 6 -21 21 -21 14 0 19 5 17 17 -5 26 -38 29 -38 4z"/>
<path d="M7400 5915 c-18 -21 -3 -55 25 -55 15 0 26 7 30 20 7 23 -10 50 -30
50 -7 0 -18 -7 -25 -15z"/>
<path d="M6280 5837 c0 -31 51 -50 66 -25 8 13 -22 38 -48 38 -10 0 -18 -6
-18 -13z"/>
<path d="M5004 5825 c-7 -18 3 -35 21 -35 18 0 28 32 13 42 -19 11 -28 10 -34
-7z"/>
<path d="M6133 5824 c-3 -8 2 -23 11 -32 14 -15 18 -15 31 -1 9 9 13 23 9 32
-8 21 -43 22 -51 1z"/>
<path d="M5400 5815 c0 -8 7 -15 15 -15 8 0 15 7 15 15 0 8 -7 15 -15 15 -8 0
-15 -7 -15 -15z"/>
<path d="M7394 5726 c-3 -9 -3 -23 0 -31 8 -22 48 0 44 23 -4 22 -36 28 -44 8z"/>
<path d="M8587 5503 c-14 -14 -7 -43 11 -43 26 0 56 25 48 38 -8 13 -48 16
-59 5z"/>
<path d="M8705 5501 c-7 -12 12 -24 25 -16 11 7 4 25 -10 25 -5 0 -11 -4 -15
-9z"/>
<path d="M5894 5486 c-9 -22 15 -48 40 -44 15 2 21 10 21 28 0 20 -6 26 -28
28 -18 2 -29 -2 -33 -12z"/>
<path d="M6014 5475 c-9 -24 22 -53 38 -37 9 9 10 17 2 29 -15 24 -33 27 -40
8z"/>
<path d="M5754 5405 c-9 -23 3 -45 21 -39 20 8 20 54 0 54 -9 0 -18 -7 -21
-15z"/>
<path d="M6816 5359 c-33 -26 -56 -69 -56 -107 0 -41 -6 -43 -59 -23 -25 10
-80 26 -121 36 -41 10 -97 28 -124 41 -47 22 -66 23 -66 5 0 -4 28 -16 63 -26
34 -10 100 -30 147 -45 151 -49 401 -97 443 -86 20 5 27 13 27 30 0 29 -17 44
-59 52 -34 7 -51 29 -51 67 0 13 -9 36 -21 51 -26 33 -84 36 -123 5z"/>
<path d="M6041 5256 c-9 -10 -8 -16 4 -26 19 -16 41 1 32 24 -8 20 -21 20 -36
2z"/>
<path d="M7750 5190 c0 -5 5 -10 10 -10 6 0 10 5 10 10 0 6 -4 10 -10 10 -5 0
-10 -4 -10 -10z"/>
<path d="M2700 5145 c0 -8 5 -15 10 -15 6 0 10 7 10 15 0 8 -4 15 -10 15 -5 0
-10 -7 -10 -15z"/>
<path d="M11844 5131 c-56 -26 -84 -64 -84 -115 0 -23 6 -50 13 -59 13 -17 71
-60 182 -134 301 -201 436 -321 538 -478 61 -93 83 -223 50 -293 -24 -50 -92
-117 -136 -133 -41 -14 -52 -32 -32 -49 11 -9 25 -1 69 37 30 26 68 58 84 70
16 13 32 35 35 50 3 16 11 47 18 69 10 34 10 56 -1 115 -27 141 -191 362 -373
503 -50 39 -120 99 -155 133 -70 67 -69 64 -42 160 32 112 -53 175 -166 124z"/>
<path d="M7255 5001 c-6 -11 9 -23 19 -14 9 9 7 23 -3 23 -6 0 -12 -4 -16 -9z"/>
<path d="M8176 4973 c-12 -12 -6 -44 10 -50 18 -7 35 13 27 33 -5 15 -29 25
-37 17z"/>
<path d="M5703 4904 c-7 -18 11 -39 26 -30 17 11 13 46 -4 46 -9 0 -18 -7 -22
-16z"/>
<path d="M5551 4897 c-18 -23 -2 -49 28 -45 20 2 26 8 26 28 0 29 -34 40 -54
17z"/>
<path d="M4370 4872 c0 -18 18 -42 31 -42 13 0 19 33 8 46 -16 20 -39 17 -39
-4z"/>
<path d="M7357 4853 c-11 -10 -8 -51 4 -59 18 -10 42 21 34 45 -6 21 -25 28
-38 14z"/>
<path d="M10271 4786 c-12 -27 -20 -51 -17 -53 8 -8 47 67 43 84 -2 12 -11 3
-26 -31z"/>
<path d="M7426 4771 c-9 -15 23 -36 36 -23 5 5 7 15 4 21 -9 13 -33 14 -40 2z"/>
<path d="M10191 4631 c-10 -22 -29 -56 -41 -77 -13 -20 -18 -35 -11 -33 17 6
95 149 82 149 -6 0 -19 -18 -30 -39z"/>
<path d="M8600 4495 c0 -9 5 -15 11 -13 6 2 11 8 11 13 0 5 -5 11 -11 13 -6 2
-11 -4 -11 -13z"/>
<path d="M10097 4494 c-14 -14 -7 -35 11 -32 9 2 17 10 17 17 0 16 -18 25 -28
15z"/>
<path d="M7299 4434 c-17 -21 0 -49 32 -49 27 0 37 28 19 50 -16 19 -34 19
-51 -1z"/>
<path d="M3500 4336 c0 -9 5 -16 10 -16 6 0 10 4 10 9 0 6 -4 13 -10 16 -5 3
-10 -1 -10 -9z"/>
<path d="M9805 4201 c-8 -15 3 -31 21 -31 9 0 14 7 12 17 -4 20 -24 28 -33 14z"/>
<path d="M7643 4104 c-3 -8 1 -23 10 -32 15 -14 17 -14 23 1 8 21 -1 47 -16
47 -6 0 -13 -7 -17 -16z"/>
<path d="M3556 4081 c-4 -5 -2 -12 3 -15 5 -4 12 -2 15 3 4 5 2 12 -3 15 -5 4
-12 2 -15 -3z"/>
<path d="M5215 4050 c-3 -5 1 -10 9 -10 9 0 16 5 16 10 0 6 -4 10 -9 10 -6 0
-13 -4 -16 -10z"/>
<path d="M11680 3780 c0 -6 6 -12 13 -14 6 -2 32 -9 57 -16 25 -7 74 -24 109
-38 48 -19 69 -23 89 -16 34 12 51 39 34 56 -10 10 -21 8 -56 -10 l-44 -23
-86 35 c-90 37 -116 43 -116 26z"/>
<path d="M5710 3681 c-7 -15 -6 -23 6 -35 22 -22 51 -20 59 4 14 43 -44 69
-65 31z"/>
<path d="M10951 3666 c-12 -14 -5 -26 16 -26 15 0 18 26 4 34 -5 3 -14 0 -20
-8z"/>
<path d="M8105 3639 c-10 -15 3 -25 16 -12 7 7 7 13 1 17 -6 3 -14 1 -17 -5z"/>
<path d="M12110 3642 c22 -14 107 -26 95 -14 -5 6 -32 13 -60 17 -33 4 -45 3
-35 -3z"/>
<path d="M12645 3628 c-55 -5 -172 -7 -260 -5 -97 2 -146 0 -125 -5 47 -11
376 -13 468 -4 39 5 72 12 72 17 0 10 -14 10 -155 -3z"/>
<path d="M11131 3571 c-17 -11 -7 -41 13 -41 22 0 30 20 15 36 -9 8 -19 10
-28 5z"/>
<path d="M3360 3486 c0 -9 5 -16 10 -16 6 0 10 4 10 9 0 6 -4 13 -10 16 -5 3
-10 -1 -10 -9z"/>
<path d="M6175 3461 c-7 -12 12 -24 25 -16 11 7 4 25 -10 25 -5 0 -11 -4 -15
-9z"/>
<path d="M10251 3336 c-10 -12 -8 -17 8 -25 11 -6 28 -11 39 -11 23 0 46 25
37 40 -9 15 -71 12 -84 -4z"/>
<path d="M6660 3315 c0 -8 7 -15 15 -15 8 0 15 7 15 15 0 8 -7 15 -15 15 -8 0
-15 -7 -15 -15z"/>
<path d="M2466 3303 c-11 -11 -6 -23 9 -23 8 0 15 4 15 9 0 13 -16 22 -24 14z"/>
<path d="M5623 3254 c-9 -23 11 -38 26 -20 13 16 7 36 -10 36 -5 0 -12 -7 -16
-16z"/>
<path d="M8953 3226 c-24 -11 -43 -26 -43 -33 0 -22 23 -14 65 22 45 39 39 41
-22 11z"/>
<path d="M7932 3173 c2 -10 10 -18 18 -18 22 0 18 29 -3 33 -14 3 -18 -1 -15
-15z"/>
<path d="M5497 3173 c-24 -23 12 -55 38 -33 12 10 13 16 4 26 -12 15 -31 18
-42 7z"/>
<path d="M7580 3160 c0 -13 7 -20 20 -20 13 0 20 7 20 20 0 13 -7 20 -20 20
-13 0 -20 -7 -20 -20z"/>
<path d="M5040 3150 c0 -5 5 -10 10 -10 6 0 10 5 10 10 0 6 -4 10 -10 10 -5 0
-10 -4 -10 -10z"/>
<path d="M4844 3119 c-3 -6 -1 -16 5 -22 9 -9 14 -8 21 3 9 15 4 30 -10 30 -5
0 -12 -5 -16 -11z"/>
<path d="M8725 3120 c-4 -7 -3 -16 3 -22 14 -14 47 -6 47 12 0 18 -40 26 -50
10z"/>
<path d="M11920 3110 c0 -5 7 -10 15 -10 8 0 15 5 15 10 0 6 -7 10 -15 10 -8
0 -15 -4 -15 -10z"/>
<path d="M8340 2996 c0 -9 5 -16 10 -16 6 0 10 4 10 9 0 6 -4 13 -10 16 -5 3
-10 -1 -10 -9z"/>
<path d="M4660 2986 c0 -9 7 -16 16 -16 9 0 14 5 12 12 -6 18 -28 21 -28 4z"/>
<path d="M8390 2990 c0 -5 5 -10 10 -10 6 0 10 5 10 10 0 6 -4 10 -10 10 -5 0
-10 -4 -10 -10z"/>
<path d="M7657 2984 c-12 -12 -8 -52 6 -57 22 -8 39 8 35 34 -3 23 -27 37 -41
23z"/>
<path d="M9073 2848 c-55 -63 -62 -98 -17 -98 19 0 26 8 39 52 8 28 15 55 15
60 0 15 -16 8 -37 -14z"/>
<path d="M7477 2654 c-8 -8 1 -24 14 -24 5 0 9 7 9 15 0 15 -12 20 -23 9z"/>
<path d="M9655 2581 c-3 -5 -1 -12 5 -16 12 -7 30 2 30 16 0 12 -27 12 -35 0z"/>
<path d="M5754 2555 c-4 -9 -2 -21 4 -27 15 -15 44 -1 40 19 -4 23 -36 29 -44
8z"/>
<path d="M7150 2550 c0 -13 5 -20 13 -17 6 2 12 10 12 17 0 7 -6 15 -12 18 -8
2 -13 -5 -13 -18z"/>
<path d="M7500 2456 c0 -17 24 -38 33 -29 15 15 6 43 -13 43 -11 0 -20 -6 -20
-14z"/>
<path d="M6283 2414 c-3 -8 1 -22 9 -30 13 -14 17 -14 31 1 9 8 14 22 11 30
-8 20 -43 19 -51 -1z"/>
<path d="M4104 2225 c-9 -23 4 -47 23 -43 22 4 30 38 11 49 -19 13 -28 11 -34
-6z"/>
<path d="M7060 2220 c0 -5 5 -10 11 -10 5 0 7 5 4 10 -3 6 -8 10 -11 10 -2 0
-4 -4 -4 -10z"/>
<path d="M12490 2205 c0 -8 5 -15 10 -15 6 0 10 7 10 15 0 8 -4 15 -10 15 -5
0 -10 -7 -10 -15z"/>
<path d="M8610 2188 c-24 -26 -23 -66 1 -81 23 -15 66 0 85 29 39 58 -37 104
-86 52z"/>
<path d="M6426 1983 c-11 -11 -6 -23 9 -23 8 0 15 4 15 9 0 13 -16 22 -24 14z"/>
<path d="M8716 1861 c-7 -11 3 -41 13 -41 14 0 29 23 24 36 -6 16 -29 19 -37
5z"/>
<path d="M5572 1833 c2 -10 13 -19 26 -21 17 -3 22 2 22 17 0 16 -6 21 -26 21
-19 0 -25 -5 -22 -17z"/>
<path d="M8769 1814 c-9 -11 -10 -20 -3 -32 16 -24 31 -25 43 -3 21 39 -12 69
-40 35z"/>
<path d="M10942 1766 c-99 -92 -342 -188 -587 -232 -214 -39 -554 -17 -755 49
-109 36 -167 50 -182 45 -7 -3 10 -12 37 -21 28 -8 70 -23 95 -32 80 -30 310
-74 434 -84 260 -21 582 23 771 105 40 18 115 44 141 51 11 2 36 -5 55 -16 40
-25 70 -26 109 -6 67 35 90 107 49 159 -17 22 -28 26 -70 26 -45 0 -54 -4 -97
-44z"/>
<path d="M5133 1499 c-14 -14 -6 -39 12 -39 15 0 28 27 19 41 -7 12 -18 11
-31 -2z"/>
<path d="M8110 1490 c0 -15 5 -20 18 -18 9 2 17 10 17 18 0 8 -8 16 -17 18
-13 2 -18 -3 -18 -18z"/>
<path d="M7792 1473 c-13 -24 3 -53 29 -53 24 0 36 27 22 49 -15 23 -40 25
-51 4z"/>
<path d="M7720 1275 c0 -8 7 -15 15 -15 8 0 15 7 15 15 0 8 -7 15 -15 15 -8 0
-15 -7 -15 -15z"/>
<path d="M8646 1171 c-4 -5 -2 -12 3 -15 5 -4 12 -2 15 3 4 5 2 12 -3 15 -5 4
-12 2 -15 -3z"/>
<path d="M5100 1045 c0 -9 5 -15 11 -13 6 2 11 8 11 13 0 5 -5 11 -11 13 -6 2
-11 -4 -11 -13z"/>
<path d="M12210 1000 c0 -5 5 -10 10 -10 6 0 10 5 10 10 0 6 -4 10 -10 10 -5
0 -10 -4 -10 -10z"/>
<path d="M3327 966 c-8 -20 16 -39 30 -25 14 14 6 39 -12 39 -7 0 -15 -6 -18
-14z"/>
<path d="M7886 721 c-9 -14 4 -41 19 -41 18 0 26 25 12 39 -13 13 -24 14 -31
2z"/>
<path d="M6930 665 c0 -8 7 -15 15 -15 8 0 15 7 15 15 0 8 -7 15 -15 15 -8 0
-15 -7 -15 -15z"/>
<path d="M4995 660 c-3 -5 1 -10 9 -10 9 0 16 5 16 10 0 6 -4 10 -9 10 -6 0
-13 -4 -16 -10z"/>
<path d="M8285 580 c3 -5 8 -10 11 -10 2 0 4 5 4 10 0 6 -5 10 -11 10 -5 0 -7
-4 -4 -10z"/>
<path d="M7337 394 c-8 -8 1 -24 14 -24 5 0 9 7 9 15 0 15 -12 20 -23 9z"/>
<path d="M11600 385 c0 -8 5 -15 10 -15 6 0 10 7 10 15 0 8 -4 15 -10 15 -5 0
-10 -7 -10 -15z"/>
<path d="M9475 350 c-4 -6 -3 -16 3 -22 6 -6 12 -6 17 2 4 6 3 16 -3 22 -6 6
-12 6 -17 -2z"/>
<path d="M4670 320 c0 -5 5 -10 10 -10 6 0 10 5 10 10 0 6 -4 10 -10 10 -5 0
-10 -4 -10 -10z"/>
<path d="M6878 149 c-10 -5 -18 -21 -18 -34 0 -21 5 -25 28 -25 32 0 52 16 52
41 0 26 -32 36 -62 18z"/>
<path d="M6410 21 c0 -11 4 -21 9 -21 18 0 21 18 6 30 -13 10 -15 9 -15 -9z"/>
</g>
</svg>
